<svg width="498" height="82" viewBox="0 0 498 82" fill="none" xmlns="http://www.w3.org/2000/svg">
<g clip-path="url(#clip0_1_867)">
<path d="M15.8687 72.9846V7.93438C15.8687 3.51572 12.353 1.52588e-05 7.93437 1.52588e-05C3.51571 1.52588e-05 0 3.51572 0 7.93438V72.9846C0 77.4033 3.51571 80.919 7.93437 80.919C12.353 80.919 15.8687 77.4033 15.8687 72.9846ZM47.3757 73.4457V33.8892C47.3757 24.1297 55.31 16.1953 65.0503 16.1953C74.6945 16.1953 82.6288 24.1297 82.6288 33.8892V73.4457C82.6288 77.8644 86.1445 81.3801 90.5632 81.3801C94.9819 81.3801 98.4976 77.8644 98.4976 73.4457V33.8892C98.4976 15.2924 83.5318 0.326608 65.0503 0.326608C46.4727 0.326608 31.5069 15.2924 31.5069 33.8892V73.4457C31.5069 77.8644 35.0226 81.3801 39.4413 81.3801C43.8599 81.3801 47.3757 77.8644 47.3757 73.4457ZM166.833 61.0927C163.106 63.4749 158.899 64.7237 154.269 64.7237C140.993 64.7237 130.004 53.7155 130.004 40.4595C130.004 27.2036 140.993 16.1953 154.269 16.1953C158.899 16.1953 163.106 17.4441 166.833 19.8263C168.197 20.614 169.561 20.9598 171.156 20.9598C175.459 20.9598 178.975 17.4441 178.975 13.0254C178.975 10.2013 177.611 7.81911 175.228 6.33982C169.215 2.59357 162.088 0.326608 154.269 0.326608C132.156 0.326608 114.136 18.347 114.136 40.4595C114.136 62.5528 132.156 80.5924 154.269 80.5924C162.088 80.5924 169.215 78.3255 175.228 74.5792C177.611 73.0999 178.975 70.7177 178.975 67.8936C178.975 63.4749 175.459 59.9592 171.156 59.9592C169.561 59.9592 168.197 60.2858 166.833 61.0927ZM245.85 7.93438V47.0299C245.85 56.7893 237.916 64.7237 228.271 64.7237C218.531 64.7237 210.597 56.7893 210.597 47.0299V7.93438C210.597 3.51572 207.081 1.52588e-05 202.663 1.52588e-05C198.244 1.52588e-05 194.728 3.51572 194.728 7.93438V47.0299C194.728 65.6266 209.694 80.5924 228.271 80.5924C246.753 80.5924 261.719 65.6266 261.719 47.0299V7.93438C261.719 3.51572 258.203 1.52588e-05 253.784 1.52588e-05C249.366 1.52588e-05 245.85 3.51572 245.85 7.93438ZM293.226 72.9846V54.7337H307.173L307.73 55.7519L320.89 76.9614C322.35 79.2284 324.733 80.5924 327.576 80.5924C331.879 80.5924 335.51 77.0767 335.51 72.6581C335.51 71.1788 335.049 69.6995 334.262 68.4507L324.06 52.0249C333.455 47.7215 340.16 38.5384 340.16 27.6454C340.16 12.5836 327 0.787688 311.477 0.787688H285.291C280.873 0.787688 277.357 4.3034 277.357 8.72206V72.9846C277.357 77.4033 280.873 80.919 285.291 80.919C289.71 80.919 293.226 77.4033 293.226 72.9846ZM293.226 38.865V16.6564H311.477C318.604 16.6564 324.272 21.8627 324.272 27.6454C324.272 33.6586 318.604 38.865 311.477 38.865H293.226ZM357.604 66.8754C364.635 75.5974 374.721 80.5924 385.595 80.5924C402.04 80.5924 415.181 70.6024 415.181 56.213C415.181 40.6901 403.404 36.7133 387.746 33.3128C377.776 30.9306 373.588 29.4705 373.588 24.1297C373.588 19.8263 377.449 16.1953 385.153 16.1953C390.475 16.1953 394.336 18.1357 397.16 20.8445C398.639 22.2086 400.561 22.9962 402.712 22.9962C407.016 22.9962 410.647 19.4805 410.647 15.0619C410.647 12.7949 409.744 10.8737 408.149 9.39446C402.828 4.3034 395.354 0.326608 385.153 0.326608C368.708 0.326608 357.719 10.7585 357.719 24.1297C357.719 40.229 369.957 45.3392 384.135 48.7397C395.124 51.1219 399.312 51.9096 399.312 56.213C399.312 61.208 393.318 64.7237 385.595 64.7237C379.601 64.7237 374.145 62.1109 369.957 56.8854C368.477 55.0795 366.21 53.946 363.732 53.946C359.409 53.946 355.798 57.4617 355.798 61.8804C355.798 63.7055 356.47 65.5114 357.604 66.8754ZM446.687 73.4457V58.5952H481.941V73.4457C481.941 77.8644 485.456 81.3801 489.875 81.3801C494.294 81.3801 497.809 77.8644 497.809 73.4457V33.8892C497.809 15.2924 482.863 0.326608 464.381 0.326608C445.785 0.326608 430.819 15.2924 430.819 33.8892V73.4457C430.819 77.8644 434.334 81.3801 438.753 81.3801C443.191 81.3801 446.687 77.8644 446.687 73.4457ZM446.687 42.7265V33.8892C446.687 24.1297 454.622 16.1953 464.381 16.1953C474.006 16.1953 481.941 24.1297 481.941 33.8892V42.7265H446.687Z" fill="white"/>
</g>
<defs>
<clipPath id="clip0_1_867">
<rect width="498" height="82" fill="white"/>
</clipPath>
</defs>
</svg>
